<?xml version="1.0" encoding="UTF-8"?>
<svg width="32" height="32" viewBox="0 0 32 32" fill="none" xmlns="http://www.w3.org/2000/svg">
  <!-- Background -->
  <rect width="32" height="32" rx="6" fill="#0d6efd"/>

  <!-- Letter S -->
  <path d="M10 8C10 8 10 10 14 10C18 10 18 8 18 8C18 6 16 5 14 5C12 5 10 6 10 8ZM10 14C10 14 10 16 12 16.5C14 17 16 17 18 18C18 19 18 21 14 21C10 21 10 19 10 19" stroke="#ffffff" stroke-width="1.5" fill="none" stroke-linecap="round" stroke-linejoin="round"/>

  <!-- Accent dot -->
  <circle cx="26" cy="8" r="2" fill="#0dcaf0"/>
</svg>
